HIERARCHY
ROOT SpineBase
{
  OFFSET 0.000000 0.000000 0.000000
  CHANNELS 6 Xposition Yposition Zposition Zrotation Xrotation Yrotation
  JOINT SpineMid
  {
    OFFSET 0.000000 28.070415 0.000000
    CHANNELS 3 Zrotation Xrotation Yrotation
    JOINT SpineShoulder
    {
      OFFSET -0.063793 20.818161 -0.756011
      CHANNELS 3 Zrotation Xrotation Yrotation
      JOINT Neck
      {
        OFFSET -0.043837 6.878897 -0.548675
        CHANNELS 3 Zrotation Xrotation Yrotation
        JOINT Head
        {
          OFFSET 3.450714 11.931598 -0.572725
          CHANNELS 3 Zrotation Xrotation Yrotation
          End Site
          {
            OFFSET 0 0 0
          }
        }
      }
      JOINT ShoulderLeft
      {
        OFFSET -13.708462 -3.069003 -6.929056
        CHANNELS 3 Zrotation Xrotation Yrotation
        JOINT ElbowLeft
        {
          OFFSET -7.113214 -18.807373 1.319039
          CHANNELS 3 Zrotation Xrotation Yrotation
          JOINT WristLeft
          {
            OFFSET 12.908656 -6.818753 -18.935318
            CHANNELS 3 Zrotation Xrotation Yrotation
            JOINT HandLeft
            {
              OFFSET 3.020430 0.900682 -4.374819
              CHANNELS 3 Zrotation Xrotation Yrotation
              JOINT HandTipLeft
              {
                OFFSET 2.600727 0.206335 -1.868664
                CHANNELS 3 Zrotation Xrotation Yrotation
                End Site
                {
                  OFFSET 0 0 0
                }
              }
              JOINT ThumbLeft
              {
                OFFSET 0.729574 2.420677 -2.536861
                CHANNELS 3 Zrotation Xrotation Yrotation
                End Site
                {
                  OFFSET 0 0 0
                }
              }
            }
          }
        }
      }
      JOINT ShoulderRight
      {
        OFFSET 14.836455 -4.745690 2.132924
        CHANNELS 3 Zrotation Xrotation Yrotation
        JOINT ElbowRight
        {
          OFFSET 4.287498 -20.301869 6.656030
          CHANNELS 3 Zrotation Xrotation Yrotation
          JOINT WristRight
          {
            OFFSET 9.745399 -5.903027 -13.474983
            CHANNELS 3 Zrotation Xrotation Yrotation
            JOINT HandRight
            {
              OFFSET 2.087880 0.442537 -8.938786
              CHANNELS 3 Zrotation Xrotation Yrotation
              JOINT HandTipRight
              {
                OFFSET 0.001240 1.009183 -5.710327
                CHANNELS 3 Zrotation Xrotation Yrotation
                End Site
                {
                  OFFSET 0 0 0
                }
              }
              JOINT ThumbRight
              {
                OFFSET -2.434552 2.450879 -3.407599
                CHANNELS 3 Zrotation Xrotation Yrotation
                End Site
                {
                  OFFSET 0 0 0
                }
              }
            }
          }
        }
      }
    }
  }
  JOINT HipLeft
  {
    OFFSET -5.584390 0.941296 -4.840017
    CHANNELS 3 Zrotation Xrotation Yrotation
    JOINT KneeLeft
    {
      OFFSET -6.904125 -27.575096 4.446226
      CHANNELS 3 Zrotation Xrotation Yrotation
      JOINT AnkleLeft
      {
        OFFSET -4.833627 -33.386454 8.419175
        CHANNELS 3 Zrotation Xrotation Yrotation
        JOINT FootLeft
        {
          OFFSET 2.603936 -3.978003 -11.937932
          CHANNELS 3 Zrotation Xrotation Yrotation
          End Site
          {
            OFFSET 0 0 0
          }
        }
      }
    }
  }
  JOINT HipRight
  {
    OFFSET 5.054860 0.188523 -1.855972
    CHANNELS 3 Zrotation Xrotation Yrotation
    JOINT KneeRight
    {
      OFFSET -1.477000 -26.096343 7.434237
      CHANNELS 3 Zrotation Xrotation Yrotation
      JOINT AnkleRight
      {
        OFFSET -5.755051 -36.102735 11.816559
        CHANNELS 3 Zrotation Xrotation Yrotation
        JOINT FootRight
        {
          OFFSET 2.557283 -4.224283 -10.225042
          CHANNELS 3 Zrotation Xrotation Yrotation
          End Site
          {
            OFFSET 0 0 0
          }
        }
      }
    }
  }
}
MOTION
Frames: 16
Frame Time: 0.033333
30.386145 68.008772 366.369331 -0.000000 0.000000 -15.667489 0.000000 0.000000 15.667489 -0.000000 0.000000 0.000000 -0.000000 0.000000 0.000000 0.000000 0.000000 0.000000 -0.000000 0.000000 0.000000 -0.000000 0.000000 0.000000 -0.000000 0.000000 0.000000 -0.000000 0.000000 0.000000 0.000000 0.000000 0.000000 0.000000 0.000000 0.000000 -0.000000 0.000000 0.000000 -0.000000 0.000000 0.000000 -0.000000 0.000000 0.000000 -0.000000 0.000000 0.000000 0.000000 0.000000 0.000000 0.000000 0.000000 0.000000 0.000000 0.000000 15.667489 -0.000000 0.000000 0.000000 -0.000000 0.000000 0.000000 0.000000 0.000000 0.000000 0.000000 0.000000 15.667489 -0.000000 0.000000 0.000000 -0.000000 0.000000 0.000000 0.000000 0.000000 0.000000
30.391714 68.030566 366.323509 -0.002490 0.044064 -15.740501 0.014350 -0.041736 15.740507 -0.000000 0.000000 0.000000 -0.000000 0.000000 0.000000 0.000000 0.000000 0.000000 -0.000000 0.000000 0.000000 -0.538797 -0.700081 0.172033 1.368330 1.878898 -0.163347 0.802685 -0.261612 4.130406 0.000000 0.000000 0.000000 0.000000 0.000000 0.000000 -0.000000 0.000000 0.000000 -0.288316 -0.659500 -0.439908 0.520706 1.530841 1.430997 -0.547436 -0.363865 -2.727136 0.000000 0.000000 0.000000 0.000000 0.000000 0.000000 0.014350 -0.041736 15.740507 -0.000000 0.000000 0.000000 -0.000000 0.000000 0.000000 0.000000 0.000000 0.000000 0.014350 -0.041736 15.740507 -0.000000 0.000000 0.000000 0.033001 3.431929 1.861851 0.000000 0.000000 0.000000
30.396379 68.048610 366.280153 -0.003498 0.080249 -15.803812 0.025221 -0.076263 15.803831 -0.000000 0.000000 0.000000 -0.000000 0.000000 0.000000 0.000000 0.000000 0.000000 -0.000000 0.000000 0.000000 -0.879825 -1.145816 0.276964 2.278553 3.132391 -0.340529 1.293284 -0.401967 7.097673 0.000000 0.000000 0.000000 0.000000 0.000000 0.000000 -0.000000 0.000000 0.000000 -0.515331 -1.172790 -0.789446 0.893136 2.697101 2.484495 -0.976650 -0.500227 -4.987837 0.000000 0.000000 0.000000 0.000000 0.000000 0.000000 0.025221 -0.076263 15.803831 -0.000000 0.000000 0.000000 -0.000000 0.000000 0.000000 0.000000 0.000000 0.000000 0.025221 -0.076263 15.803831 -0.000000 0.000000 0.000000 -0.006080 5.406024 2.952122 0.000000 0.000000 0.000000
30.400141 68.062903 366.239263 -0.003023 0.108553 -15.857413 0.032569 -0.103596 15.857446 -0.000000 0.000000 0.000000 -0.000000 0.000000 0.000000 0.000000 0.000000 0.000000 -0.000000 0.000000 0.000000 -1.020525 -1.330897 0.318140 2.759912 3.815631 -0.498952 1.562966 -0.487594 9.111610 0.000000 0.000000 0.000000 0.000000 0.000000 0.000000 -0.000000 0.000000 0.000000 -0.678213 -1.540422 -1.046498 1.141352 3.517407 3.195655 -1.282862 -0.466275 -6.712979 0.000000 0.000000 0.000000 0.000000 0.000000 0.000000 0.032569 -0.103596 15.857446 -0.000000 0.000000 0.000000 -0.000000 0.000000 0.000000 0.000000 0.000000 0.000000 0.032569 -0.103596 15.857446 -0.000000 0.000000 0.000000 -0.049778 6.376824 3.513549 0.000000 0.000000 0.000000
30.402999 68.073446 366.200839 -0.001065 0.128971 -15.901298 0.036360 -0.123744 15.901338 -0.000000 0.000000 0.000000 -0.000000 0.000000 0.000000 0.000000 0.000000 0.000000 -0.000000 0.000000 0.000000 -0.958625 -1.251183 0.296613 2.827517 3.959565 -0.624198 1.669336 -0.547069 10.317217 0.000000 0.000000 0.000000 0.000000 0.000000 0.000000 -0.000000 0.000000 0.000000 -0.774932 -1.762944 -1.209586 1.280932 4.005627 3.588007 -1.465429 -0.310800 -7.832289 0.000000 0.000000 0.000000 0.000000 0.000000 0.000000 0.036360 -0.123744 15.901338 -0.000000 0.000000 0.000000 -0.000000 0.000000 0.000000 0.000000 0.000000 0.000000 0.036360 -0.123744 15.901338 -0.000000 0.000000 0.000000 -0.077271 6.539960 3.650181 0.000000 0.000000 0.000000
30.404954 68.080237 366.164880 0.002378 0.141499 -15.935462 0.036563 -0.136714 15.935502 -0.000000 0.000000 0.000000 -0.000000 0.000000 0.000000 0.000000 0.000000 0.000000 0.437815 0.831134 -0.287382 -1.121558 -1.741195 0.482046 2.486744 3.575273 -0.717200 1.642353 -0.589990 10.798035 0.000000 0.000000 0.000000 0.000000 0.000000 0.000000 -0.000000 0.000000 0.000000 -0.804243 -1.840756 -1.277836 1.320773 4.171113 3.675752 -1.526886 -0.071920 -8.286772 0.000000 0.000000 0.000000 0.000000 0.000000 0.000000 0.036563 -0.136714 15.935502 -0.145590 -0.863934 0.087088 0.146920 0.863709 -0.089293 0.000000 0.000000 0.000000 0.036563 -0.136714 15.935502 -0.000000 0.000000 0.000000 -0.086548 5.926252 3.381547 0.000000 0.000000 0.000000
30.398279 68.080053 366.139470 0.003854 0.117896 -15.956048 0.028704 -0.114414 15.956073 -0.000000 0.000000 0.000000 -0.000000 0.000000 0.000000 0.000000 0.000000 0.000000 0.578418 1.111196 -0.386324 -0.571021 -1.115015 0.375158 1.245638 2.025944 -0.872910 1.653761 -0.320969 10.054305 0.000000 0.000000 0.000000 0.000000 0.000000 0.000000 -0.000000 0.000000 0.000000 -0.731986 -1.584344 -0.996917 1.195992 3.635934 2.612198 -1.324613 -0.078100 -6.660743 0.000000 0.000000 0.000000 0.000000 0.000000 0.000000 0.028704 -0.114414 15.956073 -0.117377 -0.801904 0.085516 0.118585 0.801726 -0.087167 0.000000 0.000000 0.000000 0.028704 -0.114414 15.956073 -0.000000 0.000000 0.000000 -0.097568 3.299586 2.092004 0.000000 0.000000 0.000000
30.392719 68.070617 366.113680 -0.000096 0.117876 -15.885347 0.032356 -0.113348 15.885379 -0.000000 0.000000 0.000000 -0.000000 0.000000 0.000000 0.000000 0.000000 0.000000 0.553881 0.949316 -0.325579 -0.548554 -0.952404 0.316431 0.754516 1.350932 -0.949884 0.207376 -1.127498 7.507078 0.000000 0.000000 0.000000 0.000000 0.000000 0.000000 -0.000000 0.000000 0.000000 -0.634683 -1.390398 -0.887089 1.099232 3.384582 2.568405 -1.211309 0.199212 -6.177018 0.000000 0.000000 0.000000 0.000000 0.000000 0.000000 0.032356 -0.113348 15.885379 -0.056827 -0.803889 0.101472 0.058256 0.803786 -0.102279 0.000000 0.000000 0.000000 0.032356 -0.113348 15.885379 -0.000000 0.000000 0.000000 1.074795 3.161189 -0.668657 0.000000 0.000000 0.000000
30.387925 68.067824 366.079111 -0.002990 0.116989 -15.857815 0.034844 -0.111720 15.857852 -0.000000 0.000000 0.000000 -0.000000 0.000000 0.000000 0.000000 0.000000 0.000000 0.634753 1.285705 -0.450191 0.501800 0.252506 0.203107 -2.107965 -2.395282 -1.583235 1.535387 0.889504 7.548702 0.000000 0.000000 0.000000 0.000000 0.000000 0.000000 -0.000000 0.000000 0.000000 -0.413369 -1.020071 -0.764235 0.763887 2.503002 1.841519 -0.811139 1.421730 -4.107261 0.000000 0.000000 0.000000 0.000000 0.000000 0.000000 0.034844 -0.111720 15.857852 0.023510 -0.813364 0.123637 -0.021757 0.813413 -0.123316 0.000000 0.000000 0.000000 0.034844 -0.111720 15.857852 -0.000000 0.000000 0.000000 -0.835169 0.896567 2.533678 0.000000 0.000000 0.000000
30.401702 68.067320 366.030490 0.025587 0.137393 -15.893938 0.013017 -0.139147 15.893923 -0.000000 0.000000 0.000000 -0.000000 0.000000 0.000000 0.000000 0.000000 0.000000 0.848907 1.962759 -0.700214 1.554339 1.292815 0.159184 -3.596850 -4.224999 -2.096025 1.545018 1.032085 5.947552 0.000000 0.000000 0.000000 0.000000 0.000000 0.000000 -0.000000 0.000000 0.000000 -0.000000 0.000000 0.000000 0.291450 1.118849 0.765421 -0.675198 1.570189 -3.413977 0.000000 0.000000 0.000000 0.000000 0.000000 0.000000 0.310016 -0.914121 16.115250 -0.070234 0.826953 -0.218090 -0.000000 0.000000 0.000000 0.000000 0.000000 0.000000 -0.502968 -0.801047 15.724977 0.676082 0.497248 0.161779 -2.151606 -7.225193 0.829157 0.000000 0.000000 0.000000
30.435088 68.082736 365.973322 0.081892 0.165104 -15.982192 -0.033268 -0.181270 15.982021 -0.000000 0.000000 0.000000 -0.000000 0.000000 0.000000 0.000000 0.000000 0.000000 1.080646 2.770274 -1.003555 3.051751 2.568294 -0.368121 -4.152087 -4.679324 -1.650142 1.152778 -0.143898 6.824608 0.000000 0.000000 0.000000 0.000000 0.000000 0.000000 -0.000000 0.000000 0.000000 0.479902 -0.056096 -1.180978 -0.480956 0.046191 1.181407 -0.320112 1.824212 -1.987298 0.000000 0.000000 0.000000 0.000000 0.000000 0.000000 -0.033268 -0.181270 15.982021 0.243533 -0.952460 0.200976 -0.240224 0.953300 -0.196953 0.000000 0.000000 0.000000 -0.600384 -0.866197 15.796531 0.732172 0.504632 0.177082 -3.758301 -15.114232 -0.912923 0.000000 0.000000 0.000000
30.472879 68.110024 365.915722 0.156649 0.188311 -16.022139 -0.098590 -0.224233 16.021688 -0.000000 0.000000 0.000000 -0.000000 0.000000 0.000000 0.000000 0.000000 0.000000 1.342506 3.956708 -1.459217 4.792484 3.716865 -0.946107 -4.930277 -5.069886 -2.182638 3.206947 0.490221 12.614009 0.000000 0.000000 0.000000 0.000000 0.000000 0.000000 -0.000000 0.000000 0.000000 0.587098 0.001261 -1.326804 -0.575579 -0.178799 2.227629 -0.343731 1.118119 -2.997736 0.000000 0.000000 0.000000 0.000000 0.000000 0.000000 -0.098590 -0.224233 16.021688 0.291050 -1.228792 0.253832 -0.554754 1.361540 0.651058 0.000000 0.000000 0.000000 -0.786064 -1.039122 15.795826 0.883369 0.596898 0.213681 -5.023909 -20.364359 -2.216371 0.000000 0.000000 0.000000
30.510013 68.133685 365.853478 0.235628 0.220156 -16.097555 -0.165348 -0.276857 16.096703 -0.000000 0.000000 0.000000 -0.000000 0.000000 0.000000 0.000000 0.000000 0.000000 2.080723 5.920217 -2.225847 6.355668 4.149744 -1.669641 -4.210528 -3.315326 -0.733212 3.416762 -0.974022 11.724971 0.000000 0.000000 0.000000 0.000000 0.000000 0.000000 -0.000000 0.000000 0.000000 -0.000000 0.000000 0.000000 0.756287 3.081798 1.674897 -1.327063 -1.744971 -4.875780 0.000000 0.000000 0.000000 0.000000 0.000000 0.000000 -0.165348 -0.276857 16.096703 0.271663 -1.345470 0.265804 -0.566410 1.496903 0.747989 0.000000 0.000000 0.000000 -1.010230 -1.358371 15.814255 1.107720 0.810166 0.262559 -5.223901 -21.007565 -2.248964 0.000000 0.000000 0.000000
30.548004 68.167953 365.792975 0.324396 0.258882 -16.244498 -0.239031 -0.339288 16.243058 -0.000000 0.000000 0.000000 0.287333 -0.774933 0.239951 0.000000 0.000000 0.000000 3.094115 8.266859 -3.186572 7.928904 4.576794 -2.144502 -3.252295 -0.693045 -1.921361 4.496352 -2.147461 13.872349 0.000000 0.000000 0.000000 0.000000 0.000000 0.000000 -0.000000 0.000000 0.000000 -0.792224 -0.777616 0.533635 2.352013 7.197232 1.640590 -2.018822 -3.608456 -4.955641 0.000000 0.000000 0.000000 0.000000 0.000000 0.000000 -0.239031 -0.339288 16.243058 0.224790 -1.438196 0.266968 -0.567016 1.615360 0.908055 0.000000 0.000000 0.000000 -1.030305 -1.049368 15.986950 0.956246 0.464588 0.242641 -4.272629 -16.753509 -0.801387 0.000000 0.000000 0.000000
30.597511 68.195661 365.742200 0.419104 0.288181 -16.503450 -0.319982 -0.395359 16.501292 -0.000000 0.000000 0.000000 0.275765 -0.963559 0.294317 0.000000 0.000000 0.000000 3.943300 10.211665 -4.024248 10.663569 6.583680 -3.142457 -4.743419 -1.899089 -2.165673 6.634742 -1.147529 13.976789 0.000000 0.000000 0.000000 0.000000 0.000000 0.000000 -0.000000 0.000000 0.000000 -0.766342 -0.539600 0.873951 2.617045 8.154986 2.642838 -2.875140 -5.635336 -8.779620 0.000000 0.000000 0.000000 0.000000 0.000000 0.000000 -0.319982 -0.395359 16.501292 0.157380 -1.497273 0.257730 -0.524949 1.689604 1.002692 0.000000 0.000000 0.000000 -1.245683 -0.838183 16.212065 1.012489 0.166674 0.277789 -2.778507 -9.207036 1.160464 0.000000 0.000000 0.000000
30.629490 68.208106 365.710502 0.487984 0.308747 -16.736234 -0.378416 -0.436182 16.733479 -0.000000 0.000000 0.000000 0.295370 -1.148249 0.349323 0.000000 0.000000 0.000000 4.728265 11.969207 -4.815440 14.101459 9.248290 -4.698954 -6.901338 -4.077642 -3.047467 9.361177 0.905392 14.745320 0.000000 0.000000 0.000000 0.000000 0.000000 0.000000 -0.000000 0.000000 0.000000 -0.753376 -0.143049 1.503186 2.650154 7.584544 1.881380 -2.859107 -4.963575 -9.212619 0.000000 0.000000 0.000000 0.000000 0.000000 0.000000 -0.378416 -0.436182 16.733479 0.067713 -1.463454 0.229109 -0.470880 1.672877 1.144710 0.000000 0.000000 0.000000 -1.459880 -0.578113 16.407331 1.077462 -0.169396 0.318168 -1.433484 -0.858565 3.016350 0.000000 0.000000 0.000000
